# xmcd
#
# Track frame offsets:
#	150
#	13925
#	27973
#	46874
#	63326
#	78396
#	93760
#	110354
#	126417
#	146371
#	162152
#
# Disc length: 2345 seconds
#
# Revision: 0
# Processed by: cddbd v1.5.2PL0 Copyright (c) Steve Scherf et al.
# Submitted via: audiograbber 1.83.01
#
DISCID=8609270b
DTITLE=Dead Fingers - Dead Fingers
DYEAR=2012
DGENRE=Country
TTITLE0=Closet Full of Bones
TTITLE1=Another Planet
TTITLE2=4 Stone Coaches
TTITLE3=Hold On To
TTITLE4=Ring Around Saturn
TTITLE5=Please Don't Let Me Go
TTITLE6=Against the River
TTITLE7=On My Way
TTITLE8=Lost in Mississippi
TTITLE9=Never Be My Man
TTITLE10=Never Be My Man
EXTD=
EXTT0=
EXTT1=
EXTT2=
EXTT3=
EXTT4=
EXTT5=
EXTT6=
EXTT7=
EXTT8=
EXTT9=
EXTT10=
PLAYORDER=
